<?xml version="1.0" standalone="no"?>
<!DOCTYPE svg PUBLIC "-//W3C//DTD SVG 20010904//EN"
 "http://www.w3.org/TR/2001/REC-SVG-20010904/DTD/svg10.dtd">
<svg version="1.0" xmlns="http://www.w3.org/2000/svg"
 width="800.000000pt" height="533.000000pt" viewBox="0 0 800.000000 533.000000"
 preserveAspectRatio="xMidYMid meet">

<g transform="translate(0.000000,533.000000) scale(0.100000,-0.100000)"
fill="#000000" stroke="none">
<path d="M0 2665 l0 -2665 320 0 320 0 0 25 c0 17 6 25 18 25 16 1 16 1 0 11
-10 5 -18 16 -18 22 0 12 77 42 125 50 16 2 13 5 -12 14 -28 10 -33 10 -33 -3
0 -27 -18 -14 -33 24 -14 34 -13 38 2 44 26 11 31 9 31 -11 0 -18 3 -19 30
-10 17 6 30 14 30 18 0 8 -109 41 -138 41 -12 0 -22 5 -22 10 0 6 15 10 34 10
63 0 85 19 46 40 -14 8 -26 8 -40 0 -12 -6 -20 -7 -20 -1 0 5 -18 12 -40 16
-33 6 -40 11 -40 30 0 15 8 25 22 29 22 6 22 7 4 21 -17 13 -15 14 20 20 124
19 225 48 220 62 -3 8 3 14 14 14 11 1 32 2 48 3 72 5 232 31 232 38 0 4 -5 8
-11 8 -8 0 -8 4 0 14 12 15 35 16 48 2 4 -4 0 -12 -10 -17 -30 -17 -8 -29 54
-29 46 0 59 3 59 15 0 10 10 15 33 15 34 0 65 14 50 23 -4 3 -25 8 -46 12 -42
8 -69 41 -46 56 22 14 54 10 105 -12 27 -11 64 -24 84 -28 l35 -7 -29 -16 -29
-15 33 -6 c17 -4 36 -4 41 -1 20 12 7 40 -23 53 -47 21 -88 53 -82 63 3 5 11
2 17 -6 13 -16 163 -40 201 -31 11 3 28 1 36 -5 13 -9 13 -11 0 -20 -8 -6 -26
-13 -40 -16 -14 -3 -36 -14 -49 -23 -24 -18 -23 -18 45 -24 38 -3 128 -4 199
-2 72 2 164 4 205 5 66 1 73 2 57 14 -10 8 -33 14 -51 14 -19 0 -44 6 -57 12
-18 10 -36 10 -88 0 -71 -13 -102 -12 -108 6 -7 20 172 27 252 10 39 -8 115
-16 170 -17 157 -3 225 -10 225 -25 0 -21 441 -19 482 2 25 13 57 14 196 10
92 -4 394 -8 672 -11 278 -2 656 -9 840 -15 184 -6 385 -12 445 -13 254 -5
1196 26 1218 40 5 3 2 10 -7 15 -19 11 -211 38 -269 38 -21 0 -59 5 -85 12
-37 9 -42 13 -26 19 10 4 44 8 75 8 70 1 119 10 119 23 0 13 -204 8 -334 -8
-60 -7 -181 -24 -270 -38 -238 -36 -333 -46 -435 -46 -81 0 -106 5 -210 40
-64 22 -129 40 -143 40 -15 0 -34 8 -43 17 -20 20 -125 36 -157 24 -22 -8 -22
-8 7 -24 29 -16 25 -17 -105 -15 -200 2 -245 18 -105 36 101 13 -468 25 -600
12 -141 -13 -170 -21 -170 -46 0 -15 -8 -20 -37 -22 -28 -2 -38 1 -38 11 0 11
-10 12 -52 5 -68 -11 -188 -8 -212 4 -11 6 -120 10 -255 11 -223 0 -238 -1
-278 -21 -39 -20 -43 -21 -58 -5 -25 24 -107 29 -150 9 -31 -15 -45 -16 -111
-6 -42 7 -102 9 -134 5 -47 -5 -65 -3 -98 14 -80 41 -162 61 -309 76 -50 5
-62 3 -58 -7 3 -8 -7 -18 -27 -26 -26 -9 -36 -9 -53 2 -11 8 -56 22 -100 31
-69 16 -91 16 -169 6 -49 -6 -97 -16 -107 -22 -14 -7 -19 -6 -19 4 0 20 44 47
86 54 50 8 30 23 -32 23 -30 0 -54 4 -54 10 0 6 -10 15 -23 19 -22 9 -22 9 6
20 59 23 377 1 478 -33 36 -12 123 -20 296 -25 13 -1 22 -6 20 -13 -2 -13 110
-36 182 -37 37 -1 42 1 31 14 -10 12 -10 15 1 16 8 1 19 0 24 -1 6 -1 86 -2
178 -2 153 1 169 0 187 -18 12 -12 17 -26 13 -36 -5 -15 1 -16 58 -10 58 6
181 11 787 33 176 6 228 15 160 28 -46 9 -477 -2 -568 -14 -41 -5 -132 -13
-202 -16 -102 -6 -132 -4 -155 8 -15 8 -39 19 -53 25 -19 8 -2 10 75 9 90 -1
519 18 620 28 22 2 47 4 56 4 9 1 19 9 22 20 5 19 6 19 235 37 96 8 108 -4 27
-30 -95 -30 -79 -38 61 -32 148 6 422 7 604 1 268 -7 690 -26 800 -35 136 -12
505 -12 572 -1 25 4 119 4 208 0 144 -6 166 -10 192 -29 25 -19 40 -21 137
-19 98 1 111 -1 130 -20 19 -19 31 -21 133 -19 63 1 113 -2 115 -7 2 -6 12
-25 23 -43 l21 -34 67 6 c37 4 90 11 117 17 28 5 79 14 115 19 90 13 180 36
193 49 8 8 8 11 -1 11 -18 0 -52 38 -52 58 0 32 -31 41 -106 30 -105 -15 -203
-16 -269 -3 -53 11 -56 13 -22 14 20 0 37 5 37 9 0 4 -20 18 -46 30 -25 12
-42 27 -39 32 9 15 36 12 57 -7 17 -15 19 -15 31 1 7 10 37 27 67 39 145 58
122 177 -51 264 -75 37 -220 83 -264 83 -9 0 -71 22 -139 49 -67 27 -151 56
-187 65 -67 16 -165 24 -176 13 -7 -8 -11 -7 152 -46 166 -39 454 -135 508
-168 23 -14 53 -39 67 -56 24 -30 24 -30 2 -25 -29 8 -27 -3 5 -26 23 -17 26
-17 20 -3 -9 23 10 21 23 -2 11 -21 3 -78 -13 -99 -17 -21 -160 -8 -195 18
-16 12 -49 24 -73 27 -24 3 -55 11 -69 18 -14 7 -41 15 -61 19 -20 4 -64 24
-97 46 -34 21 -78 42 -99 45 -79 14 -352 96 -360 109 -4 5 11 7 38 3 24 -3 64
-9 89 -12 l45 -7 -82 46 c-88 50 -108 54 -228 39 -66 -8 -68 -9 -33 -16 21 -4
40 -13 44 -19 5 -8 1 -9 -12 -4 -10 5 -63 10 -118 12 -54 2 -102 6 -106 9 -10
6 -238 20 -320 19 -50 0 -240 -8 -345 -14 -5 -1 -161 2 -345 5 -184 4 -411 8
-505 9 -100 1 -178 6 -190 12 -11 6 -40 14 -64 18 -51 8 -323 -9 -492 -30 -63
-8 -140 -14 -170 -13 -55 1 -56 2 -6 13 15 4 27 12 27 20 0 10 -17 13 -67 13
-50 -1 -88 6 -143 26 -123 45 -136 47 -276 35 -116 -10 -151 -8 -320 11 -104
13 -216 27 -249 33 -33 5 -68 10 -77 10 -10 -1 -20 3 -23 9 -4 5 19 10 52 11
32 0 74 2 93 2 19 1 85 -4 145 -12 77 -9 176 -11 330 -7 159 5 245 3 310 -7
118 -17 298 -16 350 2 28 9 100 14 240 15 344 3 629 14 667 26 25 8 88 10 200
5 90 -4 276 -8 413 -10 268 -4 457 -16 705 -46 85 -11 216 -24 290 -31 74 -6
168 -17 209 -25 103 -20 111 -18 55 13 -42 22 -67 27 -170 34 -76 5 -141 15
-175 27 -56 20 -192 38 -409 52 -69 5 -156 16 -193 24 -48 12 -73 13 -87 6
-20 -11 -363 -11 -415 0 -31 6 195 20 345 20 47 0 141 -6 210 -14 69 -9 208
-20 310 -26 102 -6 219 -18 260 -26 41 -8 98 -14 125 -14 28 0 77 -5 110 -10
33 -6 112 -15 175 -20 100 -7 329 -56 362 -76 11 -7 82 -27 190 -54 43 -11
113 -37 155 -57 43 -21 85 -38 94 -39 25 -2 39 -14 39 -33 0 -9 8 -26 18 -37
9 -10 25 -31 35 -46 10 -16 25 -28 35 -29 12 0 13 -2 4 -6 -9 -3 2 -15 30 -31
23 -13 61 -41 83 -62 22 -20 61 -51 86 -68 61 -41 68 -61 32 -89 -24 -19 -26
-26 -16 -42 6 -10 9 -29 6 -42 -5 -18 -3 -21 11 -16 10 4 20 7 22 7 3 0 2 4
-1 10 -4 6 11 10 37 11 24 0 37 3 30 6 -28 11 -8 23 41 23 36 0 47 3 37 10
-24 15 -8 19 98 26 56 4 99 11 96 15 -3 5 0 9 6 9 24 0 -3 20 -28 21 -59 3
160 27 258 29 58 1 128 6 155 10 32 6 -8 7 -110 3 -277 -10 -325 -9 -325 4 0
6 -8 14 -18 17 -9 3 99 4 241 2 202 -2 257 0 257 10 0 10 -43 11 -202 7 -299
-9 -456 14 -215 31 66 5 97 4 97 -3 0 -14 59 -14 113 0 25 6 58 7 82 2 22 -4
59 -7 83 -5 37 3 42 6 42 28 0 26 -27 33 -47 13 -6 -6 -96 -12 -234 -15 -123
-3 -241 -6 -262 -8 -54 -6 -37 7 21 15 38 6 32 7 -33 6 -114 -2 -303 4 -282
10 24 6 21 21 -5 26 -13 2 -3 5 22 6 l45 2 -49 14 c-28 7 -55 11 -62 8 -7 -2
-15 0 -19 6 -3 6 0 11 8 11 8 0 20 6 26 14 10 12 -2 15 -76 21 -48 4 -97 9
-107 11 -24 4 -42 21 -33 31 4 3 14 -2 22 -13 12 -16 14 -16 15 -3 0 22 -26
43 -45 35 -8 -3 -15 -1 -15 4 0 13 47 13 55 0 3 -5 12 -7 19 -4 8 3 17 1 21
-5 9 -16 38 -13 32 3 -4 9 2 14 19 14 14 0 24 -6 24 -14 0 -16 47 -19 70 -4
10 6 11 10 3 10 -23 0 -14 16 46 76 46 47 59 67 65 100 6 42 -15 114 -33 114
-4 0 -22 31 -39 68 -18 37 -45 81 -61 96 l-29 28 -119 -8 c-65 -4 -138 -9
-163 -11 -25 -2 -119 -5 -210 -6 -119 -3 -182 -8 -225 -21 -64 -18 -222 -23
-238 -7 -6 6 8 9 34 9 89 1 239 20 239 31 0 3 -33 14 -73 24 -78 19 -177 23
-193 7 -6 -6 -38 -4 -89 4 -91 16 -208 14 -229 -3 -7 -6 -54 -14 -103 -17 -77
-5 -97 -3 -134 14 -72 33 -120 42 -219 41 -274 -1 -499 10 -604 30 -60 11
-112 18 -116 16 -52 -32 -622 -67 -900 -55 -52 2 -160 3 -240 2 -93 -2 -158 2
-180 10 -35 12 -35 12 -9 19 14 3 86 7 160 7 74 1 158 6 188 12 29 5 155 12
280 15 124 3 319 12 432 21 163 11 235 12 349 4 79 -6 147 -13 151 -16 4 -2
47 -8 96 -13 68 -7 97 -6 128 5 49 17 124 18 162 2 15 -6 69 -17 118 -23 50
-7 127 -18 172 -25 64 -10 120 -11 263 -2 117 7 190 8 206 2 17 -7 32 -6 47 1
30 17 163 5 282 -26 90 -22 120 -25 297 -25 209 -1 274 8 325 43 40 27 45 39
28 65 -17 23 -88 34 -237 34 -67 0 -113 -6 -150 -18 -59 -20 -226 -22 -287 -4
-19 5 -38 7 -44 3 -6 -3 -49 -10 -96 -14 -102 -10 -140 0 -246 62 -88 51 -109
55 -181 34 -33 -10 -93 -21 -134 -26 -326 -33 -312 -33 -375 -14 -42 12 -101
18 -195 19 -86 1 -143 6 -157 14 -31 17 -57 15 -102 -9 -69 -35 -286 -26 -387
16 -33 14 -87 10 -224 -18 -113 -23 -292 -26 -363 -5 -61 18 -96 15 -237 -19
-111 -27 -151 -32 -275 -32 -100 -1 -129 3 -175 20 -30 12 -71 26 -90 30 -20
5 -8 5 30 1 113 -12 271 -8 410 12 94 13 206 20 365 22 127 1 264 7 305 13
184 27 265 31 340 20 41 -7 95 -12 120 -11 445 5 496 3 538 -13 27 -11 52 -15
69 -10 16 4 96 9 178 11 83 2 168 8 190 14 84 20 224 12 387 -24 135 -30 176
-34 349 -39 172 -6 204 -4 275 13 43 11 98 20 121 20 23 0 45 5 48 10 3 6 1
10 -5 10 -6 0 -8 5 -5 10 4 6 22 8 43 4 25 -4 34 -3 27 4 -31 31 -1350 52
-2088 33 -251 -6 -582 -16 -735 -21 -152 -5 -515 -14 -807 -20 -291 -5 -687
-15 -880 -21 -192 -5 -420 -12 -505 -15 -202 -6 -233 -10 -305 -44 -33 -16
-84 -32 -113 -36 -28 -3 -52 -10 -52 -15 0 -5 -7 -9 -16 -9 -11 0 -14 -5 -10
-16 3 -9 6 -23 6 -33 0 -11 14 -22 38 -30 20 -8 54 -25 75 -38 22 -14 40 -23
42 -21 2 2 9 28 17 58 l13 55 52 0 c44 -1 56 -5 85 -33 18 -18 33 -39 33 -45
0 -7 26 -16 65 -21 48 -6 60 -11 45 -17 -11 -4 -29 -8 -41 -8 -12 -1 -38 -13
-59 -27 -34 -22 -39 -24 -47 -10 -5 9 -16 16 -24 16 -17 0 -74 -58 -74 -75 0
-28 51 -54 160 -80 136 -33 220 -62 220 -77 0 -11 -14 -10 -139 12 -56 9 -166
53 -181 71 -9 10 -129 37 -340 74 -113 20 -208 39 -211 40 -3 2 -19 -4 -35
-14 -35 -21 -174 -65 -182 -57 -7 7 25 38 59 57 13 7 44 16 68 19 49 6 70 30
26 30 -28 0 -29 5 -9 73 5 16 1 17 -30 12 -34 -7 -36 -6 -36 19 0 21 -5 26
-24 26 -14 0 -31 7 -40 15 -8 8 -23 15 -33 15 -22 0 -43 18 -43 37 0 13 -40
56 -67 72 -16 9 -16 10 5 18 23 9 22 10 -17 29 -22 10 -41 25 -41 32 0 7 24
23 53 36 28 12 58 30 66 39 17 21 2 22 -27 1 -29 -20 -29 -7 0 18 16 13 19 21
11 26 -15 9 -9 802 6 811 5 3 12 41 16 84 4 42 11 77 16 77 5 0 9 18 9 40 0
22 4 40 9 40 5 0 12 36 16 80 4 44 11 80 16 80 5 0 9 24 9 54 0 35 5 60 15 70
17 17 20 36 5 36 -18 0 -10 22 10 27 20 5 22 10 25 48 3 50 36 133 55 138 20
5 28 27 10 27 -5 0 -10 7 -10 15 0 8 4 15 9 15 5 0 20 34 33 77 15 50 29 78
40 81 11 2 23 25 33 57 8 30 22 60 30 69 8 8 15 19 15 25 0 6 4 11 10 11 5 0
12 11 16 25 3 14 10 25 14 25 4 0 11 11 14 25 4 14 13 25 20 25 8 0 23 16 35
35 11 20 27 38 36 41 8 4 15 17 15 31 0 15 10 33 25 45 14 11 25 24 25 29 0 5
15 30 33 56 19 27 40 63 47 81 7 19 19 32 30 32 19 0 80 54 80 71 0 5 4 9 9 9
12 0 71 59 71 71 0 5 4 9 9 9 12 0 71 59 71 71 0 5 4 9 9 9 12 0 71 59 71 71
0 5 4 9 9 9 12 0 71 59 71 71 0 5 9 9 21 9 12 0 44 23 75 55 30 30 61 55 68
55 8 0 23 11 34 25 11 14 29 25 40 25 20 0 82 53 82 71 0 5 11 9 24 9 16 0 35
13 56 40 21 27 40 40 56 40 13 0 24 4 24 9 0 5 17 16 38 24 20 9 46 22 57 31
18 14 -96 15 -1197 16 l-1218 0 0 -2665z m2825 -749 c87 -11 95 -13 63 -19
-111 -22 -383 -33 -423 -18 l-20 8 20 5 c25 7 104 26 130 32 39 8 131 5 230
-8z m-455 -44 c0 -22 -130 -63 -240 -77 -209 -25 -330 -29 -380 -11 -25 9 -55
16 -67 16 -42 0 -23 15 20 16 23 0 143 13 267 27 287 34 285 34 348 35 28 1
52 -2 52 -6z m765 -102 c19 -7 18 -9 -8 -19 -16 -6 -37 -11 -47 -11 -31 0 -32
18 -3 28 34 13 33 13 58 2z m-301 -20 l121 -1 -24 -19 c-26 -22 -75 -25 -181
-11 -36 5 -105 13 -155 17 -71 6 -84 9 -60 15 17 4 63 6 104 3 41 -2 128 -4
195 -4z m-739 -55 c-54 -14 -233 -20 -221 -7 9 8 121 19 211 19 l60 1 -50 -13z
m3985 -28 l25 -11 -23 -4 c-29 -5 -160 17 -167 28 -6 10 135 0 165 -13z
m-1845 -18 c-46 -10 -85 -10 -85 0 0 10 88 19 105 11 6 -2 -3 -8 -20 -11z
m-740 -53 c-61 -30 -72 -33 -86 -20 -8 8 -22 14 -30 14 -18 0 -86 -24 -95 -33
-4 -4 -24 -7 -45 -7 -29 0 -38 4 -42 22 -4 12 -5 24 -3 26 10 10 174 28 266
30 l105 2 -70 -34z m-2505 -59 l-35 -12 58 -3 c63 -3 79 -22 18 -22 -21 0 -74
-11 -117 -25 -43 -14 -82 -25 -86 -25 -18 0 -6 20 20 35 l27 16 -28 -4 c-24
-4 -27 -2 -15 9 22 22 90 42 143 42 l50 0 -35 -11z m1250 -184 c36 -13 107
-16 360 -17 326 -2 388 -9 327 -37 -23 -11 -44 -10 -110 1 -52 8 -159 13 -295
12 -190 -1 -218 1 -258 19 -25 10 -54 19 -64 19 -9 0 -24 8 -31 17 -12 15 -12
16 6 9 11 -4 40 -15 65 -23z m-775 -34 c4 -6 21 -9 38 -7 18 2 32 -2 34 -9 4
-10 -13 -13 -61 -13 -69 0 -74 2 -53 25 14 17 33 19 42 4z m-530 -10 c31 -8
63 -8 115 0 39 6 94 8 122 5 l50 -7 -33 -14 c-19 -8 -50 -16 -69 -18 -19 -1
-58 -6 -86 -10 -59 -8 -112 5 -139 35 -21 23 -19 24 40 9z m-55 -20 c0 -4 -7
-6 -15 -3 -8 4 -15 10 -15 15 0 4 7 6 15 3 8 -4 15 -10 15 -15z m875 11 c19
-8 19 -9 -2 -9 -12 -1 -25 4 -28 9 -7 12 2 12 30 0z m-362 -7 c-7 -2 -19 -2
-25 0 -7 3 -2 5 12 5 14 0 19 -2 13 -5z m-87 -12 c-3 -5 -27 -12 -53 -16 -27
-3 -64 -11 -83 -17 -20 -5 -47 -8 -60 -6 -24 4 -10 8 135 37 57 12 67 12 61 2z
m-311 -41 c3 -5 -1 -10 -10 -10 -9 0 -13 5 -10 10 3 6 8 10 10 10 2 0 7 -4 10
-10z m3970 -34 c346 -13 498 -27 662 -61 40 -8 92 -15 116 -15 37 0 48 -4 62
-26 14 -21 15 -31 6 -51 -10 -21 -16 -24 -42 -18 -16 4 -35 2 -42 -3 -8 -7
-40 -5 -97 4 -47 8 -103 11 -125 8 -22 -4 -64 -6 -93 -6 -68 2 -277 31 -310
43 -14 5 -95 12 -181 15 -86 2 -190 7 -231 11 -41 3 -163 6 -270 7 -134 1
-231 7 -310 19 -102 17 -128 17 -228 6 -91 -10 -129 -10 -192 0 -43 7 -96 10
-117 6 -22 -3 -86 -8 -144 -10 -551 -22 -647 -24 -717 -10 -88 16 -53 26 68
19 101 -6 122 -5 118 6 -3 9 -23 15 -59 16 -66 1 -119 12 -119 25 0 5 27 6 63
2 126 -14 367 -8 652 16 87 8 1308 5 1530 -3z m-2760 -6 c3 -5 -1 -10 -9 -10
-8 0 -18 5 -21 10 -3 6 1 10 9 10 8 0 18 -4 21 -10z m300 -32 c6 -6 -33 -9
-112 -6 -78 2 -126 7 -134 15 -10 10 15 11 112 6 68 -3 129 -10 134 -15z
m-138 -74 c40 -23 51 -25 107 -19 43 5 66 3 70 -4 4 -6 18 -11 32 -11 14 0 23
-4 20 -9 -3 -5 -53 -8 -112 -6 -94 2 -107 5 -120 24 -8 11 -26 21 -38 21 -13
0 -29 7 -36 15 -21 25 27 19 77 -11z m1668 16 c4 -6 -10 -10 -34 -10 -23 0
-41 5 -41 10 0 6 15 10 34 10 19 0 38 -4 41 -10z m-605 -20 c8 -5 12 -11 10
-13 -10 -9 -220 -17 -220 -9 0 18 185 38 210 22z m3605 -11 c11 -16 1 -19 -13
-3 -7 8 -8 14 -3 14 5 0 13 -5 16 -11z m-4048 -5 c-3 -3 -12 -4 -19 -1 -8 3
-5 6 6 6 11 1 17 -2 13 -5z m-1236 -20 c11 -14 10 -15 -11 -12 -13 1 -25 9
-28 16 -5 17 23 15 39 -4z m559 6 c22 -7 21 -8 -12 -9 -21 -1 -38 4 -38 9 0
11 14 11 50 0z m1925 -10 c-3 -5 -26 -10 -51 -10 -24 0 -44 5 -44 10 0 6 23
10 51 10 31 0 48 -4 44 -10z m475 -5 c0 -17 -11 -20 -25 -6 -6 5 -19 11 -30
14 -11 3 -4 5 18 6 27 1 37 -3 37 -14z m-2915 -5 c3 -5 -1 -10 -10 -10 -9 0
-13 5 -10 10 3 6 8 10 10 10 2 0 7 -4 10 -10z m-95 -15 l25 -14 -36 -1 c-24 0
-39 5 -43 15 -7 19 20 19 54 0z m509 -1 c23 -4 30 -8 21 -14 -8 -5 3 -10 31
-14 24 -4 56 -9 72 -12 15 -3 27 -1 27 4 0 13 39 22 45 11 9 -14 -64 -39 -114
-39 -25 1 -64 7 -86 15 -48 18 -81 19 -91 4 -4 -7 -21 -9 -41 -6 -23 4 -43 1
-58 -9 -19 -12 -30 -13 -71 -2 -65 16 -77 28 -28 28 21 0 46 5 54 10 19 12 7
12 -63 0 -62 -12 -108 0 -89 23 11 12 318 13 391 1z m2921 6 c8 -5 13 -10 10
-11 -41 -7 -66 -6 -75 1 -5 4 -21 10 -35 13 -14 2 0 5 30 5 30 1 62 -3 70 -8z
m-2217 -46 c94 -4 77 -11 -48 -19 -81 -5 -129 -4 -159 5 -31 8 -49 9 -63 2
-21 -12 -103 -4 -103 9 0 11 144 17 240 11 41 -2 101 -6 133 -8z m-426 0 c-3
-3 -12 -4 -19 -1 -8 3 -5 6 6 6 11 1 17 -2 13 -5z m-1034 -11 c-7 -2 -19 -2
-25 0 -7 3 -2 5 12 5 14 0 19 -2 13 -5z m5002 -43 c3 -5 1 -10 -4 -10 -6 0
-11 5 -11 10 0 6 2 10 4 10 3 0 8 -4 11 -10z m-4022 -32 c10 -5 17 -12 14 -14
-6 -6 -109 16 -127 28 -20 12 89 -1 113 -14z m421 -33 c-55 -17 -304 -29 -324
-16 -11 8 16 11 95 12 61 0 130 4 155 8 25 5 61 9 80 9 l35 0 -41 -13z m531 6
c19 -8 19 -8 -2 -15 -24 -8 -43 -1 -43 15 0 11 17 11 45 0z m3718 -111 c-5
-20 -23 -26 -36 -13 -9 8 12 33 28 33 8 0 11 -8 8 -20z m-5887 -66 c-4 -15 -2
-32 5 -40 8 -10 9 -14 0 -14 -14 0 -34 49 -27 67 10 25 28 14 22 -13z m2682 7
c19 -11 142 -31 194 -32 28 -1 25 -3 -22 -14 -72 -19 -188 -19 -222 -1 -15 8
-41 17 -58 21 -42 9 -30 18 33 26 29 3 53 7 55 8 1 0 10 -3 20 -8z"/>
<path d="M6030 5322 c0 -11 33 -42 44 -42 5 0 25 -13 46 -30 21 -16 43 -30 48
-30 6 0 19 -11 30 -25 11 -14 30 -25 42 -25 12 0 31 -11 42 -25 11 -14 26 -25
34 -25 7 0 38 -25 68 -55 31 -32 63 -55 75 -55 12 0 21 -4 21 -9 0 -12 59 -71
71 -71 5 0 9 -4 9 -9 0 -12 59 -71 71 -71 5 0 9 -4 9 -9 0 -12 59 -71 71 -71
5 0 9 -4 9 -9 0 -12 59 -71 71 -71 5 0 9 -4 9 -9 0 -12 59 -71 71 -71 5 0 9
-4 9 -9 0 -12 59 -71 71 -71 5 0 9 -11 9 -24 0 -16 13 -35 40 -56 27 -21 40
-40 40 -56 0 -13 4 -24 9 -24 5 0 16 -18 25 -40 9 -22 23 -40 31 -40 8 0 15
-7 15 -15 0 -8 4 -15 9 -15 5 0 20 -34 33 -76 17 -56 29 -78 47 -87 27 -13 37
-29 45 -69 3 -14 13 -28 22 -30 9 -2 24 -26 34 -54 10 -29 28 -65 40 -82 26
-35 63 -132 50 -132 -9 0 21 -94 33 -107 4 -3 7 -16 7 -29 0 -12 4 -24 10 -26
14 -5 42 -78 30 -78 -6 0 -4 -15 5 -36 8 -20 15 -56 15 -80 0 -36 3 -44 19
-44 15 0 19 -11 25 -61 3 -34 6 -88 6 -120 0 -33 4 -59 9 -59 5 0 12 -72 16
-160 4 -88 11 -160 16 -160 5 0 9 -72 9 -160 0 -88 -4 -160 -9 -160 -5 0 -12
-72 -16 -160 -4 -88 -11 -160 -15 -160 -4 0 -11 -36 -15 -80 -4 -44 -11 -80
-16 -80 -5 0 -9 -22 -9 -50 0 -39 -4 -50 -16 -50 -8 0 -12 -4 -9 -10 3 -5 2
-10 -3 -10 -5 0 -12 -9 -15 -20 -3 -11 -1 -20 5 -20 5 0 7 -4 4 -9 -3 -5 10
-12 29 -15 41 -8 55 -25 26 -33 -12 -3 -21 -12 -21 -20 0 -8 -13 -19 -30 -24
-39 -14 -38 -24 3 -39 l32 -12 -42 -15 c-51 -18 -54 -28 -10 -38 28 -6 30 -8
12 -15 -11 -5 -33 -9 -50 -10 -28 -2 -27 -3 10 -11 22 -5 85 -15 140 -23 85
-11 93 -13 55 -17 -35 -3 -44 -8 -42 -20 2 -12 -8 -19 -33 -25 -45 -11 -42
-29 5 -30 20 0 49 -4 65 -9 17 -4 59 -8 95 -7 59 1 63 0 46 -13 -18 -14 -17
-15 23 -15 l43 0 -3 -42 -4 -43 43 4 c27 2 42 -1 42 -8 0 -8 5 -9 19 -1 11 5
29 10 40 10 l21 0 0 2000 0 2000 -985 0 c-542 0 -985 -4 -985 -8z m1860 -3893
c19 -11 27 -18 17 -15 -10 3 -30 6 -43 6 -15 0 -24 6 -24 15 0 19 8 18 50 -6z"/>
<path d="M5334 3650 c17 -152 27 -377 22 -508 -8 -217 -17 -332 -25 -328 -4 3
-7 -4 -8 -14 -2 -26 -51 -100 -71 -107 -9 -4 -19 -9 -22 -12 -13 -16 -80 -61
-89 -61 -6 0 -11 -4 -11 -9 0 -6 -9 -8 -20 -6 -14 3 -20 -2 -20 -16 0 -17 -3
-18 -20 -7 -14 9 -23 10 -28 2 -10 -15 -156 -45 -160 -33 -2 5 -9 6 -15 2 -6
-4 -87 -8 -180 -9 -92 -1 -171 -5 -174 -8 -4 -3 20 -6 53 -6 144 -2 362 1 399
5 22 2 75 6 117 10 42 3 87 8 100 11 29 5 90 14 148 20 25 3 113 4 195 3 83
-1 191 -3 240 -3 98 -1 336 11 357 18 7 3 43 7 80 10 78 7 167 24 188 38 12 7
11 8 -5 4 -19 -5 -87 -14 -255 -37 -94 -12 -388 -21 -403 -12 -6 4 -25 8 -42
9 -73 6 -117 14 -138 25 -31 16 -77 66 -77 83 0 7 -11 24 -24 37 -21 22 -23
34 -29 174 -14 324 -57 750 -79 770 -7 7 -9 -6 -4 -45z m45 -892 c1 -19 -4
-28 -14 -28 -17 0 -18 18 -8 100 l7 55 7 -50 c4 -27 8 -62 8 -77z m-149 -112
c0 -2 -7 -9 -15 -16 -13 -11 -14 -10 -9 4 5 14 24 23 24 12z"/>
<path d="M4135 3255 c4 -220 8 -424 9 -453 2 -39 -1 -55 -12 -59 -14 -6 -34
15 -26 28 2 4 0 10 -6 14 -6 3 -10 -4 -10 -18 0 -26 -57 -107 -76 -107 -7 0
-14 -7 -18 -15 -3 -8 -12 -15 -21 -15 -9 0 -15 -9 -15 -22 0 -20 -1 -20 -18
-5 -20 19 -32 13 -32 -14 0 -16 -4 -17 -27 -8 -19 7 -29 7 -31 0 -2 -6 -8 -9
-13 -5 -5 3 -9 -2 -9 -10 0 -9 -4 -16 -10 -16 -5 0 -10 5 -10 11 0 7 -8 6 -23
-3 -15 -10 -29 -13 -45 -7 -24 9 -52 2 -64 -15 -5 -7 -11 -8 -15 -1 -10 13
-33 17 -33 6 0 -11 -286 -7 -312 4 -11 4 -18 3 -18 -4 0 -6 -4 -11 -10 -11 -5
0 -10 6 -10 13 0 9 -10 12 -30 9 -19 -3 -30 0 -30 8 0 7 -6 10 -12 7 -50 -20
-51 -20 -46 -6 4 9 -2 14 -18 15 -13 1 -24 -2 -24 -7 0 -5 -7 -9 -15 -9 -9 0
-12 6 -8 16 5 13 2 15 -16 9 -22 -7 -56 16 -43 30 4 5 -2 3 -13 -3 -17 -9 -21
-6 -32 20 -9 21 -18 28 -28 24 -9 -3 -13 -2 -10 4 3 6 2 10 -3 10 -5 0 -14 15
-20 33 -11 30 -11 28 -8 -26 2 -41 0 -55 -8 -47 -6 6 -12 44 -14 85 -4 66 -2
74 12 69 13 -5 15 -2 10 12 -4 11 -9 22 -11 27 -2 4 -7 188 -10 410 -3 221 -7
404 -9 406 -23 24 -34 -121 -40 -533 -5 -297 -9 -372 -20 -383 -8 -8 -14 -23
-14 -34 0 -13 -4 -18 -12 -13 -7 5 -9 2 -5 -8 3 -10 -3 -20 -19 -28 -13 -8
-24 -17 -24 -22 0 -4 -6 -8 -14 -8 -8 0 -18 -10 -22 -22 -5 -18 -8 -19 -18 -7
-19 24 -36 21 -36 -6 0 -37 -20 -30 -21 8 -1 23 -3 26 -6 10 -2 -13 -11 -23
-19 -23 -8 0 -14 -5 -14 -11 0 -8 -11 -9 -31 -5 -24 4 -35 2 -45 -11 -12 -16
-15 -16 -24 -3 -9 13 -10 13 -10 0 0 -13 -1 -13 -10 0 -8 12 -10 10 -10 -8 l0
-23 113 7 c61 4 142 7 179 8 38 1 68 3 68 6 0 3 30 6 68 8 37 2 69 8 70 13 2
5 8 9 13 9 6 0 7 -5 3 -12 -7 -11 -4 -10 44 9 6 3 12 1 12 -4 0 -6 12 -10 28
-11 15 0 41 -3 57 -6 85 -14 197 -20 355 -21 197 0 432 9 446 17 5 3 37 5 71
4 36 -1 64 2 66 9 2 6 51 11 127 11 112 1 123 0 127 -17 6 -21 18 -25 28 -9 9
15 25 12 25 -5 0 -8 5 -15 10 -15 6 0 13 7 16 15 4 9 20 15 43 16 34 1 34 1 9
9 -15 4 -37 15 -49 24 -17 11 -26 13 -36 4 -10 -8 -13 -7 -13 5 0 18 -29 12
-42 -7 -7 -10 -13 14 -9 36 0 4 -6 5 -14 2 -10 -4 -15 0 -15 12 -1 18 -1 18
-11 0 -11 -17 -12 -17 -23 5 -6 13 -22 26 -36 30 -25 7 -25 7 -2 8 17 1 22 6
20 19 -2 9 -10 16 -16 15 -11 -3 -14 4 -11 23 0 4 -5 10 -13 15 -9 6 -14 41
-16 126 -8 410 -23 756 -32 771 -8 12 -9 -102 -5 -383z m-1286 -608 c-2 -1
-15 -11 -29 -22 l-25 -20 19 23 c11 12 24 22 29 22 6 0 8 -1 6 -3z"/>
<path d="M5885 3434 c-76 -28 -118 -88 -118 -170 0 -32 7 -63 19 -83 23 -40
99 -77 174 -86 30 -3 69 -11 87 -16 61 -19 51 -80 -16 -100 -55 -16 -105 -4
-133 31 l-24 30 -49 -16 c-28 -9 -54 -20 -59 -25 -17 -15 41 -86 91 -110 66
-33 189 -33 248 -1 83 45 115 91 115 168 0 98 -62 154 -192 174 -116 18 -128
23 -128 59 0 57 93 72 150 25 l31 -27 50 23 c27 13 49 27 49 31 0 18 -58 73
-95 90 -48 22 -143 24 -200 3z"/>
<path d="M5073 3392 c-29 -2 -53 -4 -53 -5 0 -11 -70 -360 -73 -363 -2 -2 -27
77 -56 176 l-54 180 -62 0 c-57 0 -63 -2 -68 -22 -3 -13 -20 -99 -38 -193 -18
-93 -34 -165 -36 -159 -2 6 -25 89 -51 185 l-48 174 -61 0 c-34 0 -65 -3 -68
-7 -4 -4 25 -112 64 -240 40 -128 77 -252 82 -276 l11 -43 66 3 67 3 27 130
c15 72 33 155 39 185 l12 55 38 -130 c22 -71 46 -154 55 -184 l16 -54 61 7
c34 3 64 9 67 14 8 8 123 563 118 565 -2 1 -27 1 -55 -1z"/>
<path d="M3316 3373 c-6 -6 2 -491 9 -548 2 -16 9 -20 38 -19 21 0 111 1 202
2 l165 2 0 61 0 61 -135 -7 -135 -7 0 59 0 60 46 7 c26 3 73 6 105 6 l59 0 0
56 0 56 -107 -3 -108 -4 -3 58 -3 57 136 0 135 0 0 55 0 55 -198 0 c-109 0
-202 -3 -206 -7z"/>
<path d="M2111 3352 l-64 -3 7 -76 c3 -42 6 -170 6 -285 l0 -208 56 0 57 0 -5
185 c-3 102 -3 183 0 180 3 -3 54 -85 113 -183 59 -97 110 -176 113 -174 3 1
29 2 56 2 l50 0 -2 283 -3 282 -52 3 -53 3 0 -163 0 -163 -93 157 c-50 86 -99
158 -107 160 -8 2 -44 2 -79 0z"/>
<path d="M4327 3034 c-4 -4 -7 -14 -7 -23 0 -11 3 -12 11 -4 6 6 10 16 7 23
-2 6 -7 8 -11 4z"/>
<path d="M1830 2575 c-11 -13 -6 -18 31 -34 33 -13 71 -18 149 -19 119 -1 121
3 8 13 -54 5 -83 12 -99 26 -12 10 -28 19 -35 19 -7 0 -19 2 -27 5 -7 3 -20
-1 -27 -10z"/>
<path d="M2446 2533 c-4 -4 -46 -10 -94 -14 l-87 -6 102 -1 c87 -2 102 0 97
13 -7 17 -8 18 -18 8z"/>
<path d="M1574 2393 c-16 -16 -15 -18 5 -27 26 -11 27 -26 2 -26 -27 0 -35
-16 -13 -25 22 -9 269 -34 343 -35 47 0 59 -4 72 -22 14 -22 15 -22 34 -5 11
9 25 17 31 17 6 0 16 -8 22 -17 10 -17 10 -17 20 0 22 35 126 16 132 -25 2
-14 9 -22 18 -19 84 22 523 45 700 36 69 -4 188 -16 265 -27 119 -17 163 -19
295 -12 226 11 386 8 760 -16 80 -5 225 -12 322 -15 97 -3 266 -9 375 -15 109
-6 374 -19 588 -30 390 -20 555 -33 648 -51 28 -5 79 -9 116 -9 36 0 107 -7
156 -15 113 -19 202 -19 235 0 16 9 54 14 104 15 44 0 77 3 74 6 -3 3 -44 19
-89 35 -81 29 -93 31 -329 39 -135 5 -301 14 -370 19 -69 6 -186 13 -260 17
-74 3 -164 9 -200 14 -93 13 -661 46 -1095 65 -203 9 -415 20 -470 25 -55 5
-296 14 -535 20 -239 6 -601 20 -805 30 -203 11 -525 22 -714 25 -327 5 -346
6 -366 25 -26 24 -48 25 -71 3z"/>
<path d="M1466 2351 c-4 -7 -5 -15 -2 -18 9 -9 19 4 14 18 -4 11 -6 11 -12 0z"/>
<path d="M803 2125 c0 -8 4 -12 9 -9 5 3 6 10 3 15 -9 13 -12 11 -12 -6z"/>
<path d="M7063 1913 c20 -21 45 -49 56 -63 18 -21 22 -23 31 -10 20 30 10 49
-44 79 -72 41 -87 39 -43 -6z"/>
<path d="M7010 1874 c0 -15 24 -64 33 -64 4 0 7 6 7 14 0 16 -39 66 -40 50z"/>
<path d="M7089 1773 c-1 -5 -1 -11 -1 -14 1 -4 -8 -5 -18 -2 -32 8 -23 -14 18
-43 44 -33 101 -94 102 -111 0 -6 15 -31 33 -55 41 -54 57 -90 58 -131 l1 -32
9 30 c27 84 -25 215 -123 308 -57 54 -77 66 -79 50z"/>
<path d="M7311 1564 c0 -11 3 -14 6 -6 3 7 2 16 -1 19 -3 4 -6 -2 -5 -13z"/>
<path d="M7345 1569 c-4 -6 -5 -12 -2 -15 2 -3 7 2 10 11 7 17 1 20 -8 4z"/>
<path d="M7505 1520 c-3 -5 -1 -10 4 -10 6 0 11 5 11 10 0 6 -2 10 -4 10 -3 0
-8 -4 -11 -10z"/>
<path d="M7341 1464 c0 -11 3 -14 6 -6 3 7 2 16 -1 19 -3 4 -6 -2 -5 -13z"/>
<path d="M3215 1460 c-27 -11 49 -11 85 0 21 7 17 8 -20 8 -25 0 -54 -3 -65
-8z"/>
<path d="M3575 1440 c-44 -5 -128 -14 -186 -20 -58 -5 -125 -16 -150 -23 -38
-11 -4 -13 245 -10 257 3 291 2 307 -13 19 -17 49 -16 144 6 28 6 102 15 165
19 l115 7 -45 14 c-31 10 -98 15 -215 15 -93 0 -199 4 -235 7 -36 4 -101 3
-145 -2z"/>
<path d="M4660 1413 l-35 -16 45 -15 c48 -16 159 -20 181 -6 8 5 -13 16 -61
31 -88 27 -85 27 -130 6z"/>
<path d="M7180 1265 c-18 -19 -20 -25 -8 -25 19 0 52 36 40 44 -5 3 -20 -6
-32 -19z"/>
<path d="M7980 1260 c-13 -8 -12 -10 3 -10 9 0 17 5 17 10 0 12 -1 12 -20 0z"/>
<path d="M6847 1239 c7 -7 15 -10 18 -7 3 3 -2 9 -12 12 -14 6 -15 5 -6 -5z"/>
<path d="M6960 1200 c0 -5 7 -10 16 -10 8 0 12 5 9 10 -3 6 -10 10 -16 10 -5
0 -9 -4 -9 -10z"/>
<path d="M6225 1180 c53 -25 77 -25 40 0 -16 11 -41 20 -55 19 -22 0 -20 -3
15 -19z"/>
<path d="M6307 1154 c-8 -8 8 -15 167 -70 55 -19 128 -49 162 -65 35 -17 73
-29 86 -27 26 4 35 32 17 54 -37 44 -196 92 -264 80 -19 -4 -43 0 -61 8 -37
18 -97 30 -107 20z"/>
<path d="M7978 1143 c7 -3 16 -2 19 1 4 3 -2 6 -13 5 -11 0 -14 -3 -6 -6z"/>
<path d="M7968 1103 c6 -2 18 -2 25 0 6 3 1 5 -13 5 -14 0 -19 -2 -12 -5z"/>
<path d="M7200 1060 c0 -5 6 -10 14 -10 8 0 18 5 21 10 3 6 -3 10 -14 10 -12
0 -21 -4 -21 -10z"/>
<path d="M6950 910 c8 -5 24 -10 35 -10 17 0 17 2 5 10 -8 5 -24 10 -35 10
-17 0 -17 -2 -5 -10z"/>
<path d="M7883 893 c24 -3 37 -9 37 -19 0 -10 12 -14 40 -14 29 0 40 4 40 15
0 8 -8 15 -19 15 -10 0 -45 2 -77 4 -32 2 -42 1 -21 -1z"/>
<path d="M6816 875 c4 -8 8 -15 10 -15 2 0 4 7 4 15 0 8 -4 15 -10 15 -5 0 -7
-7 -4 -15z"/>
<path d="M7818 863 c7 -3 16 -2 19 1 4 3 -2 6 -13 5 -11 0 -14 -3 -6 -6z"/>
<path d="M6820 840 c0 -6 32 -9 78 -9 71 1 73 2 32 10 -64 11 -110 11 -110 -1z"/>
<path d="M7875 833 c22 -3 42 -8 45 -13 3 -4 22 -11 43 -15 32 -6 37 -5 37 11
0 17 -9 19 -83 20 -45 0 -64 -1 -42 -3z"/>
<path d="M1470 816 c0 -10 9 -16 25 -16 14 0 25 5 25 10 0 6 -4 10 -9 10 -5 0
-16 3 -25 6 -11 4 -16 1 -16 -10z"/>
<path d="M1645 770 c27 -12 35 -12 35 0 0 6 -12 10 -27 9 -25 0 -26 -1 -8 -9z"/>
<path d="M2015 756 c-36 -16 -29 -20 79 -35 48 -7 83 -8 89 -2 12 12 -2 19
-46 25 -19 2 -44 9 -55 15 -25 14 -30 13 -67 -3z"/>
<path d="M2447 744 c-11 -11 3 -24 18 -18 8 4 12 10 9 15 -6 11 -18 12 -27 3z"/>
<path d="M4845 720 c3 -5 15 -10 26 -10 11 0 17 5 14 10 -3 6 -15 10 -26 10
-11 0 -17 -4 -14 -10z"/>
<path d="M4928 713 c7 -3 16 -2 19 1 4 3 -2 6 -13 5 -11 0 -14 -3 -6 -6z"/>
<path d="M6125 710 c3 -5 12 -10 20 -10 8 0 17 5 20 10 4 6 -5 10 -20 10 -15
0 -24 -4 -20 -10z"/>
<path d="M1560 610 c-13 -8 -12 -10 3 -10 9 0 17 5 17 10 0 12 -1 12 -20 0z"/>
<path d="M6372 609 c6 -17 112 -24 160 -10 30 8 26 9 -33 10 -37 1 -81 4 -99
8 -25 5 -32 3 -28 -8z"/>
</g>
</svg>
